<?xml version="1.0" encoding="UTF-8" standalone="no"?>
<svg
   width="956.90961"
   zoomAndPan="magnify"
   viewBox="0 0 717.68221 259.77202"
   height="346.3627"
   preserveAspectRatio="xMidYMid"
   version="1.0"
   id="svg366"
   xml:space="preserve"
   xmlns="http://www.w3.org/2000/svg"
   xmlns:svg="http://www.w3.org/2000/svg"><defs
     id="defs276" /><g
     id="g572"
     transform="translate(-53.940101,-284.97833)"><g
       fill="#002665"
       fill-opacity="1"
       id="g284"><g
         transform="translate(39.244791,435.95489)"
         id="g282"><g
           id="g280"><path
             d="M 119.80078,0 V -27.390625 H 46.316406 V -61.902344 H 118.24219 V -89.070312 H 46.316406 v -32.289068 h 73.484374 v -27.16406 H 14.695312 V 0 Z m 0,0"
             id="path278" /></g></g></g><g
       fill="#002665"
       fill-opacity="1"
       id="g292"><g
         transform="translate(169.0643,435.95489)"
         id="g290"><g
           id="g288"><path
             d="m 46.316406,0 v -53.21875 h 37.855469 c 32.066405,0 49.878905,-21.601562 49.878905,-47.42969 0,-26.05469 -17.58984,-47.875 -49.878905,-47.875 H 14.695312 V 0 Z m 55.445314,-100.87109 c 0,12.468746 -9.351564,20.484371 -21.820314,20.484371 h -33.625 v -40.972661 h 33.625 c 12.46875,0 21.820314,8.23829 21.820314,20.48829 z m 0,0"
             id="path286" /></g></g></g><g
       fill="#002665"
       fill-opacity="1"
       id="g300"><g
         transform="translate(308.01346,435.95489)"
         id="g298"><g
           id="g296"><path
             d="m 7.570312,-74.152344 c 0,44.757813 32.734376,76.824219 77.492188,76.824219 44.98047,0 77.71484,-32.066406 77.71484,-76.824219 0,-44.757816 -32.73437,-76.824216 -77.71484,-76.824216 -44.757812,0 -77.492188,32.0664 -77.492188,76.824216 z m 122.695308,0 c 0,27.613282 -17.81249,48.765625 -45.20312,48.765625 -27.390625,0 -44.980469,-21.152343 -44.980469,-48.765625 0,-27.832036 17.589844,-48.765626 44.980469,-48.765626 27.39063,0 45.20312,20.93359 45.20312,48.765626 z m 0,0"
             id="path294" /></g></g></g><g
       fill="#002665"
       fill-opacity="1"
       id="g308"><g
         transform="translate(478.35982,435.95489)"
         id="g306"><g
           id="g304"><path
             d="M 149.41797,0 95.527344,-76.378906 146.07422,-148.52344 H 108 L 74.375,-97.753906 40.304688,-148.52344 H 2.671875 L 53.21875,-76.15625 -0.667969,0 H 36.964844 L 74.375,-54.332031 111.5625,0 Z m 0,0"
             id="path302" /></g></g></g><g
       fill="#002665"
       fill-opacity="1"
       id="g316"><g
         transform="translate(627.10668,435.95489)"
         id="g314"><g
           id="g312"><path
             d="M 87.734375,0 V -60.789062 L 144.51562,-148.52344 H 108.44531 L 71.925781,-88.847656 34.960938,-148.52344 H -1.113281 l 57.226562,87.734378 V 0 Z m 0,0"
             id="path310" /></g></g></g><g
       fill="#b90b30"
       fill-opacity="1"
       id="g324"><g
         transform="translate(219.66149,543.44963)"
         id="g322"><g
           id="g320"><path
             d="M 17.429688,0 V -32.914062 H 55 v -8.011719 H 17.429688 v -23.277344 h 38.328124 v -8.011719 H 8.445312 V 0 Z m 0,0"
             id="path318" /></g></g></g><g
       fill="#b90b30"
       fill-opacity="1"
       id="g332"><g
         transform="translate(279.20283,543.44963)"
         id="g330"><g
           id="g328"><path
             d="M 60.847656,0 41.359375,-29.449219 c 9.851563,-0.867187 18.730469,-8.011719 18.730469,-21.003906 0,-13.316406 -9.417969,-21.761719 -22.628906,-21.761719 H 8.445312 V 0 h 8.984376 V -28.691406 H 31.832031 L 50.238281,0 Z M 50.777344,-50.453125 c 0,8.121094 -5.84375,13.859375 -14.398438,13.859375 H 17.429688 v -27.609375 h 18.949218 c 8.554688,0 14.398438,5.628906 14.398438,13.75 z m 0,0"
             id="path326" /></g></g></g><g
       fill="#b90b30"
       fill-opacity="1"
       id="g340"><g
         transform="translate(345.02308,543.44963)"
         id="g338"><g
           id="g336"><path
             d="M 17.429688,0 V -72.214844 H 8.445312 V 0 Z m 0,0"
             id="path334" /></g></g></g><g
       fill="#b90b30"
       fill-opacity="1"
       id="g348"><g
         transform="translate(370.89649,543.44963)"
         id="g346"><g
           id="g344"><path
             d="m 4.113281,-10.175781 c 5.957031,6.710937 15.160157,11.476562 27.71875,11.476562 19.488281,0 26.632813,-10.71875 26.632813,-21.222656 0,-15.15625 -13.425782,-18.839844 -25.226563,-21.980469 -9.203125,-2.488281 -17.539062,-4.652344 -17.539062,-11.90625 0,-6.824218 6.171875,-11.476562 14.832031,-11.476562 7.90625,0 15.484375,2.707031 20.898438,8.660156 l 5.410156,-6.605469 c -6.0625,-6.386719 -14.613282,-10.066406 -25.65625,-10.066406 -14.183594,0 -24.796875,8.117187 -24.796875,20.027344 0,14.183593 12.886719,17.433593 24.46875,20.464843 9.527343,2.597657 18.300781,4.980469 18.300781,13.640626 0,5.523437 -4.117188,12.453124 -17,12.453124 -10.175781,0 -17.972656,-4.980468 -22.738281,-10.289062 z m 0,0"
             id="path342" /></g></g></g><g
       fill="#b90b30"
       fill-opacity="1"
       id="g356"><g
         transform="translate(434.33509,543.44963)"
         id="g354"><g
           id="g352"><path
             d="m 42.332031,1.300781 c 13.101563,0 21.765625,-6.066406 27.828125,-14.292969 l -7.6875,-4.222656 c -4.113281,6.171875 -11.585937,10.503906 -20.140625,10.503906 -15.480469,0 -27.5,-12.234374 -27.5,-29.34375 0,-17.214843 12.019531,-29.339843 27.5,-29.339843 8.554688,0 16.027344,4.4375 20.140625,10.5 l 7.578125,-4.222657 C 64.3125,-67.234375 55.433594,-73.40625 42.332031,-73.40625 c -20.460937,0 -36.808593,15.15625 -36.808593,37.351562 0,22.195313 16.347656,37.355469 36.808593,37.355469 z m 0,0"
             id="path350" /></g></g></g><g
       fill="#b90b30"
       fill-opacity="1"
       id="g364"><g
         transform="translate(507.51682,543.44963)"
         id="g362"><g
           id="g360"><path
             d="m 5.523438,-36.054688 c 0,21.328126 14.398437,37.355469 35.835937,37.355469 21.328125,0 35.835937,-16.027343 35.835937,-37.355469 0,-21.328124 -14.507812,-37.351562 -35.835937,-37.351562 -21.4375,0 -35.835937,16.023438 -35.835937,37.351562 z m 62.363281,0 c 0,16.78125 -10.394531,29.34375 -26.527344,29.34375 -16.242187,0 -26.527344,-12.5625 -26.527344,-29.34375 0,-16.890624 10.285157,-29.339843 26.527344,-29.339843 16.132813,0 26.527344,12.449219 26.527344,29.339843 z m 0,0"
             id="path358" /></g></g></g></g></svg>
