<svg xmlns="http://www.w3.org/2000/svg" xmlns:xlink="http://www.w3.org/1999/xlink" width="1080" zoomAndPan="magnify" viewBox="0 0 810 809.999993" height="1080" preserveAspectRatio="xMidYMid meet" version="1.0"><defs><clipPath id="46639d9304"><path d="M 81 197.347656 L 298 197.347656 L 298 629.347656 L 81 629.347656 Z M 81 197.347656 " clip-rule="nonzero"/></clipPath><clipPath id="89da93b3fc"><path d="M 297 413 L 729 413 L 729 629.347656 L 297 629.347656 Z M 297 413 " clip-rule="nonzero"/></clipPath><clipPath id="39baff8ec3"><path d="M 297 197.347656 L 729 197.347656 L 729 414 L 297 414 Z M 297 197.347656 " clip-rule="nonzero"/></clipPath></defs><g clip-path="url(#46639d9304)"><path fill="#002665" d="M 81.210938 197.347656 L 297.070312 197.347656 L 297.070312 629.347656 L 81.210938 629.347656 Z M 81.210938 197.347656 " fill-opacity="1" fill-rule="nonzero"/></g><g clip-path="url(#89da93b3fc)"><path fill="#b90b30" d="M 297.070312 413.347656 L 728.789062 413.347656 L 728.789062 629.347656 L 297.070312 629.347656 Z M 297.070312 413.347656 " fill-opacity="1" fill-rule="nonzero"/></g><g clip-path="url(#39baff8ec3)"><path fill="#ededed" d="M 297.070312 197.347656 L 728.789062 197.347656 L 728.789062 413.347656 L 297.070312 413.347656 Z M 297.070312 197.347656 " fill-opacity="1" fill-rule="nonzero"/></g><path fill="#ededed" d="M 189.097656 340.933594 L 207.230469 396.03125 L 265.273438 396.199219 L 218.410156 430.5 L 236.128906 485.765625 L 189.097656 451.792969 L 142.070312 485.765625 L 159.871094 430.5 L 113.007812 396.199219 L 171.050781 396.03125 Z M 189.097656 340.933594 " fill-opacity="1" fill-rule="nonzero"/></svg>